<svg id="Layer_1" data-name="Layer 1" xmlns="http://www.w3.org/2000/svg" xmlns:xlink="http://www.w3.org/1999/xlink" viewBox="0 0 1600 862.85"><defs><style>.cls-1,.cls-6{fill:none;}.cls-2{clip-path:url(#clip-path);}.cls-3{font-size:33.35px;fill:#959696;font-family:BrixSansRegular, Brix Sans;}.cls-4{letter-spacing:0em;}.cls-5{fill:#1c1b1a;}.cls-6{stroke:#1c1b1a;stroke-miterlimit:10;stroke-width:4.17px;}</style><clipPath id="clip-path"><rect class="cls-1" x="49.36" y="123.92" width="1444.47" height="584.32"/></clipPath></defs><title>ucsd-library-solid</title><g class="cls-2"><text class="cls-3" transform="translate(51.08 147.93)">Solid</text><text class="cls-3" transform="translate(870.45 147.93)">Line<tspan class="cls-4" x="56.06" y="0"> </tspan><tspan x="63.06" y="0">Art</tspan></text></g><polygon class="cls-5" points="458.79 336.98 458.79 336.82 458.85 336.82 458.85 320.42 442.29 320.42 442.29 336.98 458.79 336.98"/><polygon class="cls-5" points="473.46 351.65 473.46 368.07 490.02 368.07 490.02 351.65 473.52 351.65 473.46 351.65"/><rect class="cls-5" x="287.41" y="165.61" width="109.43" height="16.3"/><rect class="cls-5" x="287.41" y="196.61" width="109.43" height="16.27"/><rect class="cls-5" x="287.41" y="227.59" width="109.43" height="16.07"/><rect class="cls-5" x="504.74" y="382.91" width="16.56" height="16.56"/><rect class="cls-5" x="504.75" y="320.42" width="16.55" height="16.56"/><rect class="cls-5" x="473.53" y="320.42" width="16.55" height="16.4"/><rect class="cls-5" x="318.75" y="351.65" width="16.41" height="16.42"/><rect class="cls-5" x="287.52" y="382.91" width="16.56" height="16.56"/><polygon class="cls-5" points="303.92 336.82 304.07 336.82 304.07 320.42 287.52 320.42 287.52 336.98 303.92 336.98 303.92 336.82"/><rect class="cls-5" x="287.52" y="351.66" width="16.41" height="16.56"/><rect class="cls-5" x="287.41" y="691.94" width="109.43" height="16.3"/><rect class="cls-5" x="287.41" y="289.35" width="109.43" height="16.26"/><rect class="cls-5" x="349.98" y="320.42" width="16.55" height="16.56"/><rect class="cls-5" x="287.41" y="258.57" width="109.43" height="15.94"/><rect class="cls-5" x="318.75" y="320.42" width="16.55" height="16.4"/><rect class="cls-5" x="504.74" y="351.67" width="16.56" height="16.56"/><rect class="cls-5" x="225.69" y="320.28" width="15.94" height="109.28"/><rect class="cls-5" x="194.71" y="320.2" width="16.07" height="109.36"/><rect class="cls-5" x="194.71" y="444.29" width="16.07" height="109.36"/><polygon class="cls-5" points="241.77 599.3 241.63 599.3 241.63 568.33 225.69 568.33 225.46 568.33 225.46 615.52 272.74 615.52 272.74 615.28 272.74 599.35 241.77 599.35 241.77 599.3"/><rect class="cls-5" x="411.89" y="289.35" width="109.43" height="16.26"/><rect class="cls-5" x="287.41" y="660.97" width="109.43" height="16.26"/><rect class="cls-5" x="132.73" y="444.29" width="16.3" height="109.36"/><rect class="cls-5" x="163.74" y="320.2" width="16.27" height="109.36"/><rect class="cls-5" x="132.73" y="320.2" width="16.3" height="109.36"/><rect class="cls-5" x="163.74" y="444.29" width="16.27" height="109.36"/><rect class="cls-5" x="225.69" y="444.29" width="15.94" height="109.28"/><rect class="cls-5" x="411.89" y="196.61" width="109.43" height="16.27"/><rect class="cls-5" x="411.89" y="227.59" width="109.43" height="16.07"/><polygon class="cls-5" points="225.47 305.52 225.69 305.52 241.63 305.52 241.63 274.55 241.77 274.55 241.77 274.51 272.74 274.51 272.74 258.57 272.74 258.33 225.47 258.33 225.47 305.52"/><rect class="cls-5" x="256.46" y="320.28" width="16.27" height="109.28"/><rect class="cls-5" x="411.89" y="258.57" width="109.43" height="15.94"/><polygon class="cls-5" points="256.44 584.63 272.73 584.63 272.73 568.25 256.46 568.25 256.46 568.33 256.44 568.33 256.44 584.63"/><rect class="cls-5" x="256.46" y="444.29" width="16.27" height="109.28"/><polygon class="cls-5" points="272.73 289.23 256.44 289.23 256.44 305.52 256.46 305.52 256.46 305.61 272.73 305.61 272.73 289.23"/><rect class="cls-5" x="411.89" y="165.61" width="109.43" height="16.3"/><rect class="cls-5" x="567.1" y="320.28" width="15.94" height="109.28"/><polygon class="cls-5" points="536 459.89 536.06 459.89 536.06 491.12 536.06 505.8 536.06 522.34 536.06 537.02 536.06 553.58 552.27 553.58 552.27 444.29 536 444.29 536 459.89"/><polygon class="cls-5" points="536 584.63 552.29 584.63 552.29 568.33 552.27 568.33 552.27 568.25 536.06 568.25 536 568.25 536 584.63"/><rect class="cls-5" x="567.1" y="444.29" width="15.94" height="109.28"/><polygon class="cls-5" points="552.27 305.52 552.29 305.52 552.29 289.23 536 289.23 536 305.61 552.27 305.61 552.27 305.52"/><rect class="cls-5" x="504.83" y="474.56" width="16.5" height="16.55"/><rect class="cls-5" x="536" y="320.28" width="16.27" height="109.28"/><polygon class="cls-5" points="567.1 568.33 567.1 599.3 566.97 599.3 566.97 599.35 535.99 599.35 535.99 615.28 535.99 615.52 583.26 615.52 583.26 568.33 583.04 568.33 567.1 568.33"/><rect class="cls-5" x="628.72" y="320.2" width="16.27" height="109.36"/><rect class="cls-5" x="659.7" y="320.2" width="16.3" height="109.36"/><rect class="cls-5" x="659.7" y="444.29" width="16.3" height="109.36"/><polygon class="cls-5" points="535.99 258.57 535.99 274.51 566.97 274.51 566.97 274.55 567.1 274.55 567.1 305.53 583.04 305.53 583.26 305.53 583.26 258.33 535.99 258.33 535.99 258.57"/><rect class="cls-5" x="504.83" y="505.79" width="16.5" height="16.55"/><rect class="cls-5" x="628.72" y="444.29" width="16.27" height="109.36"/><rect class="cls-5" x="597.95" y="444.29" width="16.07" height="109.36"/><rect class="cls-5" x="597.95" y="320.2" width="16.07" height="109.36"/><polygon class="cls-5" points="490.16 568.25 473.57 568.25 458.91 568.25 427.67 568.25 411.9 568.25 411.9 584.51 521.32 584.51 521.32 568.25 504.82 568.25 490.16 568.25"/><polygon class="cls-5" points="287.43 553.57 304 553.57 304 537.14 303.93 537.14 303.93 537.02 287.43 537.02 287.43 553.57"/><rect class="cls-5" x="318.67" y="505.9" width="16.49" height="16.44"/><rect class="cls-5" x="287.43" y="474.56" width="16.56" height="16.55"/><rect class="cls-5" x="318.68" y="537.14" width="16.56" height="16.43"/><polygon class="cls-5" points="381.16 568.25 349.91 568.25 335.25 568.25 318.67 568.25 304.01 568.25 287.41 568.25 287.41 584.51 396.83 584.51 396.83 568.25 381.16 568.25"/><polygon class="cls-5" points="504.83 553.57 521.32 553.57 521.33 553.57 521.33 537.02 504.83 537.02 504.83 553.57"/><rect class="cls-5" x="287.43" y="505.79" width="16.49" height="16.55"/><rect class="cls-5" x="349.92" y="537.01" width="16.56" height="16.56"/><polygon class="cls-5" points="473.46 522.34 473.57 522.34 490.02 522.34 490.02 505.9 473.46 505.9 473.46 522.34"/><polygon class="cls-5" points="442.34 537.01 442.34 553.58 458.9 553.58 458.9 537.14 458.79 537.14 458.79 537.01 442.34 537.01"/><rect class="cls-5" x="287.41" y="599.35" width="109.43" height="15.93"/><rect class="cls-5" x="287.41" y="630.19" width="109.43" height="16.07"/><rect class="cls-5" x="411.9" y="691.94" width="109.43" height="16.3"/><rect class="cls-5" x="473.58" y="537.14" width="16.56" height="16.43"/><rect class="cls-5" x="411.9" y="599.35" width="109.43" height="15.93"/><rect class="cls-5" x="411.9" y="660.97" width="109.43" height="16.26"/><rect class="cls-5" x="411.9" y="630.19" width="109.43" height="16.07"/><g class="cls-2"><path class="cls-6" d="M1193.2,525.94h-30.12v30.13h30.12Zm-30.14,0h-30.12v30.13h30.12Zm-30.13-60.24H1102.8v30.13h30.13Zm0,30.12H1102.8v30.13h30.13Zm0,30.12H1102.8v30.13h30.13Zm-30-118.52H1133V377.29h-30.13Zm0-30.14H1133V347.15h-30.13Zm60.24-30.14h30.13V317h-30.13Zm-30.12,0h30.12V317H1133Zm149.23,30h30.13V347h-30.13Zm-149.37,0H1163V347h-30.13Zm-30-30H1133V317h-30.13Zm239.66,60.28H1312.4V377.29h30.13Zm0-30.14H1312.4V347.15h30.13Zm-60.24-30.14h-30.13V317h30.13Zm30.12,0h-30.12V317h30.12Zm30.12,0H1312.4V317h30.13Zm149.21,89.36h-29.91V316.8h29.91Zm-29.87,0H1432V316.8h29.91Zm-29.87,0h-29.91V316.8H1432Zm-29.69,0h-29.9V316.8h29.9Zm-29.75,0h-30V286.93h30Zm-30-268.8H1222.85v29.91h119.69Zm0,29.87H1222.85v29.91h119.69Zm0,29.88H1222.85v29.91h119.69Zm0,29.69H1222.85V287h119.69Zm29.88,29.75H1222.85v30h149.57Zm29.87-29.75h-59.75v59.75h59.75ZM953.58,436.5h29.91V316.8H953.58Zm29.87,0h29.91V316.8H983.46Zm29.87,0h29.91V316.8h-29.91Zm29.69,0h29.9V316.8H1043Zm29.75,0h30V286.93h-30Zm30-268.8h119.69v29.91H1102.78Zm0,29.87h119.69v29.91H1102.78Zm0,29.88h119.69v29.91H1102.78Zm0,29.69h119.69V287H1102.78Zm-29.88,29.75h149.57v30H1072.9ZM1043,257.13h59.75v59.75H1043Zm239.2,268.93h30.13V495.93h-30.13Zm-149.37,0H1163V495.93h-30.13Zm119.36-.12h30.12v30.13h-30.12Zm30.13,0h30.13v30.13h-30.13Zm30.14-60.24h30.13v30.13h-30.13Zm0,30.12h30.13v30.13h-30.13Zm0,30.12h30.13v30.13h-30.13Zm179.26-89.5h-29.91v119.7h29.91Zm-29.87,0H1432v119.7h29.91Zm-29.87,0h-29.91v119.7H1432Zm-29.69,0h-29.9v119.7h29.9Zm-29.75,0h-30V586h30Zm-30,268.8H1222.85V675.33h119.69Zm0-29.88H1222.85V645.46h119.69Zm0-29.87H1222.85V615.58h119.69Zm0-29.69H1222.85V585.9h119.69Zm29.88-29.76H1222.85v-30h149.57Zm29.87,29.76h-59.75V556.06h59.75ZM953.58,436.44h29.91v119.7H953.58Zm29.87,0h29.91v119.7H983.46Zm29.87,0h29.91v119.7h-29.91Zm29.69,0h29.9v119.7H1043Zm29.75,0h30V586h-30Zm30,268.8h119.69V675.33H1102.78Zm0-29.88h119.69V645.46H1102.78Zm0-29.87h119.69V615.58H1102.78Zm0-29.69h119.69V585.9H1102.78Zm-29.88-29.76h149.57v-30H1072.9ZM1043,615.81h59.75V556.06H1043Z"/></g></svg>